<svg xmlns="http://www.w3.org/2000/svg" enable-background="new 0 0 32 32" viewBox="0 0 32 32"><path fill="#E3F8FA" d="M26,32H6c-3.314,0-6-2.686-6-6V6c0-3.314,2.686-6,6-6h20c3.314,0,6,2.686,6,6v20C32,29.314,29.314,32,26,32z"/><path fill="#E3F8FA" d="M26,32H6c-3.314,0-6-2.686-6-6V6c0-3.314,2.686-6,6-6h20c3.314,0,6,2.686,6,6v20C32,29.314,29.314,32,26,32z"/><path fill="#26C6DA" d="M9.792,19.737c0.564,0.452,1.21,0.764,1.91,0.933c0.402,0.097,0.804,0.141,1.215,0.153c0.3,0.011,0.6,0.008,0.91,0.008h4.331c0.299,0,0.609,0.003,0.909-0.008c0.41-0.012,0.81-0.055,1.209-0.153c0.7-0.171,1.341-0.482,1.911-0.935C23.34,18.826,24,17.452,24,15.999c0-1.454-0.66-2.827-1.794-3.737c-0.563-0.452-1.208-0.764-1.91-0.932c-0.4-0.097-0.802-0.141-1.215-0.153c-0.299-0.01-0.599-0.007-0.909-0.007H13.84c-0.305,0-0.61-0.003-0.915,0.007c-0.412,0.014-0.815,0.055-1.217,0.153c-0.701,0.169-1.35,0.482-1.91,0.933C8.66,13.173,8,14.546,8,15.999C8,17.454,8.66,18.827,9.792,19.737z M11.908,14.698c0.209-0.15,0.449-0.239,0.699-0.28c0.25-0.041,0.5-0.041,0.761-0.041h5.25c0.25,0,0.51-0.009,0.76,0.031c0.25,0.04,0.49,0.129,0.701,0.27c0.43,0.289,0.68,0.78,0.68,1.299c0,0.52-0.261,1-0.69,1.3l0.021,0.021c-0.213,0.147-0.45,0.237-0.705,0.277c-0.255,0.041-0.507,0.033-0.761,0.033h-5.249c-0.255,0-0.508,0.009-0.763-0.033c-0.254-0.042-0.489-0.13-0.705-0.277c-0.429-0.301-0.685-0.78-0.685-1.301C11.222,15.467,11.48,14.988,11.908,14.698z"/></svg>